<svg viewBox="383 155.8404 380 161.2651" width="5000" height="2121.9092105263153" xmlns="http://www.w3.org/2000/svg"
     xmlns:xlink="http://www.w3.org/1999/xlink" preserveAspectRatio="none">
    <defs></defs>
    <style>.a6izo4zJpcolor {fill:#000000;fill-opacity:1;}.aD6z1nYkhcolor
        {fill:#000000;fill-opacity:1;}.aDGSFcrI09Gcolors-0 {fill:#FBCF21;fill-opacity:1;}.aL5g6HXEkyY0filter-floo
        {flood-color:#FBCF21;flood-opacity:0.5;}.am92r7A-Vdcolors-0 {fill:#000000;fill-opacity:1;}.am92r7A-Vdcolors-1
        {fill:#F3B340;fill-opacity:1;}.am92r7A-Vdcolors-2 {fill:#FDCEAC;fill-opacity:1;}.am92r7A-Vdcolors-3
        {fill:#F3F0ED;fill-opacity:1;}.am92r7A-Vdcolors-4 {fill:#F3B340;fill-opacity:1;}.am92r7A-Vdcolors-5
        {fill:#FDCEAC;fill-opacity:1;}.am92r7A-Vdcolors-6 {fill:#F3F0ED;fill-opacity:1;}.am92r7A-Vdcolors-7
        {fill:#F3B340;fill-opacity:1;}.ay5Kt2Ohpc0filter-floo {flood-color:#3D3C3B;flood-opacity:0.46;}.icon2
        {fill:#F3B340;fill-opacity:1;}.icon3 {fill:#FDCEAC;fill-opacity:1;}.icon3-str
        {stroke:#FDCEAC;stroke-opacity:1;}.icon4 {fill:#F3F0ED;fill-opacity:1;}.icon5
        {fill:#F3B340;fill-opacity:1;}.icon6 {fill:#FDCEAC;fill-opacity:1;}.icon7 {fill:#F3F0ED;fill-opacity:1;}.icon8
        {fill:#F3B340;fill-opacity:1;}
    </style>
    <defs>
        <filter
                x="491.0256"
                y="155.8404"
                width="103.9488"
                height="104"
                id="L5g6HXEkyY"
                filterUnits="userSpaceOnUse"
                primitiveUnits="userSpaceOnUse"
                color-interpolation-filters="sRGB">

            <feGaussianBlur in="SourceGraphic" stdDeviation="0"/>
            <feOffset dx="4" dy="4" result="pfbcxGveCf"/>
            <feFlood flood-color="#FBCF21" flood-opacity="0.5" in="pfbcxGveCf"/>
            <feComposite in2="pfbcxGveCf" operator="in" result="m-z6ZfqUg"/>
            <feMerge result="a94Us5Ctb20">
                <feMergeNode in="m-z6ZfqUg"/>
                <feMergeNode in="SourceGraphic"/>
            </feMerge>
        </filter>
        <filter
                x="567.0256"
                y="155.8404"
                width="99.9488"
                height="100"
                id="y5Kt2Ohpc"
                filterUnits="userSpaceOnUse"
                primitiveUnits="userSpaceOnUse"
                color-interpolation-filters="sRGB">
            <feMerge>
                <feMergeNode in="SourceGraphic"/>
            </feMerge>
        </filter>
    </defs>
    <g opacity="1" transform="rotate(0 395.8205 302.5186)">
        <svg width="354.3589" height="14.5869" x="395.8205" y="302.5186" version="1.1" preserveAspectRatio="none"
             viewBox="4.56 -29.88 980.28 40.36">
            <g transform="matrix(1 0 0 1 0 0)" class="a6izo4zJpcolor">
                <path id="id-6izo4zJp49"
                      d="M23.76-25.44L7.52-25.44L7.52-14.44L22-14.44L22-11.88L7.52-11.88L7.52 0L4.56 0L4.56-28L23.76-28L23.76-25.44Z M30.88 0L30.88-21.04L33.72-21.04L33.72 0L30.88 0ZM32.32-25.64Q31.44-25.64 30.84-26.24Q30.24-26.84 30.24-27.68L30.24-27.68Q30.24-28.48 30.84-29.08Q31.44-29.68 32.32-29.68L32.32-29.68Q33.20-29.68 33.80-29.10Q34.40-28.52 34.40-27.72L34.40-27.72Q34.40-26.84 33.80-26.24Q33.20-25.64 32.32-25.64L32.32-25.64Z M43.64 0L43.64-21.04L46.48-21.04L46.48 0L43.64 0ZM45.08-25.64Q44.20-25.64 43.60-26.24Q43-26.84 43-27.68L43-27.68Q43-28.48 43.60-29.08Q44.20-29.68 45.08-29.68L45.08-29.68Q45.96-29.68 46.56-29.10Q47.16-28.52 47.16-27.72L47.16-27.72Q47.16-26.84 46.56-26.24Q45.96-25.64 45.08-25.64L45.08-25.64Z M76.24-21.20Q80.36-21.20 82.56-19.14Q84.76-17.08 84.76-13.04L84.76-13.04L84.76 0L82.04 0L82.04-3.28Q81.08-1.64 79.22-0.72Q77.36 0.20 74.80 0.20L74.80 0.20Q71.28 0.20 69.20-1.48Q67.12-3.16 67.12-5.92L67.12-5.92Q67.12-8.60 69.06-10.24Q71-11.88 75.24-11.88L75.24-11.88L81.92-11.88L81.92-13.16Q81.92-15.88 80.40-17.30Q78.88-18.72 75.96-18.72L75.96-18.72Q73.96-18.72 72.12-18.06Q70.28-17.40 68.96-16.24L68.96-16.24L67.68-18.36Q69.28-19.72 71.52-20.46Q73.76-21.20 76.24-21.20L76.24-21.20ZM75.24-2.04Q77.64-2.04 79.36-3.14Q81.08-4.24 81.92-6.32L81.92-6.32L81.92-9.76L75.32-9.76Q69.92-9.76 69.92-6L69.92-6Q69.92-4.16 71.32-3.10Q72.72-2.04 75.24-2.04L75.24-2.04Z M94.48 0L94.48-21.04L97.32-21.04L97.32 0L94.48 0ZM95.92-25.64Q95.04-25.64 94.44-26.24Q93.84-26.84 93.84-27.68L93.84-27.68Q93.84-28.48 94.44-29.08Q95.04-29.68 95.92-29.68L95.92-29.68Q96.80-29.68 97.40-29.10Q98.00-28.52 98.00-27.72L98.00-27.72Q98.00-26.84 97.40-26.24Q96.80-25.64 95.92-25.64L95.92-25.64Z M115.96 0.20Q112.84 0.20 110.38-1.16Q107.92-2.52 106.52-4.98Q105.12-7.44 105.12-10.52L105.12-10.52Q105.12-13.60 106.52-16.04Q107.92-18.48 110.38-19.84Q112.84-21.20 115.96-21.20L115.96-21.20Q118.68-21.20 120.82-20.14Q122.96-19.08 124.20-17.04L124.20-17.04L122.08-15.60Q121.04-17.16 119.44-17.94Q117.84-18.72 115.96-18.72L115.96-18.72Q113.68-18.72 111.86-17.70Q110.04-16.68 109.02-14.80Q108.00-12.92 108.00-10.52L108.00-10.52Q108.00-8.08 109.02-6.22Q110.04-4.36 111.86-3.34Q113.68-2.32 115.96-2.32L115.96-2.32Q117.84-2.32 119.44-3.08Q121.04-3.84 122.08-5.40L122.08-5.40L124.20-3.96Q122.96-1.92 120.80-0.86Q118.64 0.20 115.96 0.20L115.96 0.20Z M131.76 0L131.76-21.04L134.60-21.04L134.60 0L131.76 0ZM133.20-25.64Q132.32-25.64 131.72-26.24Q131.12-26.84 131.12-27.68L131.12-27.68Q131.12-28.48 131.72-29.08Q132.32-29.68 133.20-29.68L133.20-29.68Q134.08-29.68 134.68-29.10Q135.28-28.52 135.28-27.72L135.28-27.72Q135.28-26.84 134.68-26.24Q134.08-25.64 133.20-25.64L133.20-25.64Z M144.84-4.16Q145.76-4.16 146.36-3.54Q146.96-2.92 146.96-2L146.96-2Q146.96-1.52 146.82-0.96Q146.68-0.40 146.40 0.32L146.40 0.32L144.72 5.84L142.80 5.84L144.16 0.04Q143.52-0.16 143.12-0.70Q142.72-1.24 142.72-2L142.72-2Q142.72-2.92 143.32-3.54Q143.92-4.16 144.84-4.16L144.84-4.16Z M174.44-27.48Q172.60-27.48 171.66-26.48Q170.72-25.48 170.72-23.52L170.72-23.52L170.72-21.04L177.20-21.04L177.20-18.64L170.80-18.64L170.80 0L167.96 0L167.96-18.64L164.20-18.64L164.20-21.04L167.96-21.04L167.96-23.64Q167.96-26.52 169.62-28.20Q171.28-29.88 174.32-29.88L174.32-29.88Q175.52-29.88 176.64-29.54Q177.76-29.20 178.52-28.56L178.52-28.56L177.56-26.44Q176.32-27.48 174.44-27.48L174.44-27.48Z M186.24 0L186.24-21.04L189.08-21.04L189.08 0L186.24 0ZM187.68-25.64Q186.80-25.64 186.20-26.24Q185.60-26.84 185.60-27.68L185.60-27.68Q185.60-28.48 186.20-29.08Q186.80-29.68 187.68-29.68L187.68-29.68Q188.56-29.68 189.16-29.10Q189.76-28.52 189.76-27.72L189.76-27.72Q189.76-26.84 189.16-26.24Q188.56-25.64 187.68-25.64L187.68-25.64Z M199.00 0L199.00-21.04L201.84-21.04L201.84 0L199.00 0ZM200.44-25.64Q199.56-25.64 198.96-26.24Q198.36-26.84 198.36-27.68L198.36-27.68Q198.36-28.48 198.96-29.08Q199.56-29.68 200.44-29.68L200.44-29.68Q201.32-29.68 201.92-29.10Q202.52-28.52 202.52-27.72L202.52-27.72Q202.52-26.84 201.92-26.24Q201.32-25.64 200.44-25.64L200.44-25.64Z M231.60-21.20Q235.72-21.20 237.92-19.14Q240.12-17.08 240.12-13.04L240.12-13.04L240.12 0L237.40 0L237.40-3.28Q236.44-1.64 234.58-0.72Q232.72 0.20 230.16 0.20L230.16 0.20Q226.64 0.20 224.56-1.48Q222.48-3.16 222.48-5.92L222.48-5.92Q222.48-8.60 224.42-10.24Q226.36-11.88 230.60-11.88L230.60-11.88L237.28-11.88L237.28-13.16Q237.28-15.88 235.76-17.30Q234.24-18.72 231.32-18.72L231.32-18.72Q229.32-18.72 227.48-18.06Q225.64-17.40 224.32-16.24L224.32-16.24L223.04-18.36Q224.64-19.72 226.88-20.46Q229.12-21.20 231.60-21.20L231.60-21.20ZM230.60-2.04Q233.00-2.04 234.72-3.14Q236.44-4.24 237.28-6.32L237.28-6.32L237.28-9.76L230.68-9.76Q225.28-9.76 225.28-6L225.28-6Q225.28-4.16 226.68-3.10Q228.08-2.04 230.60-2.04L230.60-2.04Z M258.64 0.20Q255.52 0.20 253.06-1.16Q250.60-2.52 249.20-4.98Q247.80-7.44 247.80-10.52L247.80-10.52Q247.80-13.60 249.20-16.04Q250.60-18.48 253.06-19.84Q255.52-21.20 258.64-21.20L258.64-21.20Q261.36-21.20 263.50-20.14Q265.64-19.08 266.88-17.04L266.88-17.04L264.76-15.60Q263.72-17.16 262.12-17.94Q260.52-18.72 258.64-18.72L258.64-18.72Q256.36-18.72 254.54-17.70Q252.72-16.68 251.70-14.80Q250.68-12.92 250.68-10.52L250.68-10.52Q250.68-8.08 251.70-6.22Q252.72-4.36 254.54-3.34Q256.36-2.32 258.64-2.32L258.64-2.32Q260.52-2.32 262.12-3.08Q263.72-3.84 264.76-5.40L264.76-5.40L266.88-3.96Q265.64-1.92 263.48-0.86Q261.32 0.20 258.64 0.20L258.64 0.20Z M290.56-21.04L293.40-21.04L293.40 0L290.68 0L290.68-3.84Q289.56-1.92 287.60-0.86Q285.64 0.20 283.12 0.20L283.12 0.20Q279.00 0.20 276.62-2.10Q274.24-4.40 274.24-8.84L274.24-8.84L274.24-21.04L277.08-21.04L277.08-9.12Q277.08-5.80 278.72-4.08Q280.36-2.36 283.40-2.36L283.40-2.36Q286.72-2.36 288.64-4.38Q290.56-6.40 290.56-10L290.56-10L290.56-21.04Z M329.60-21.20Q333.56-21.20 335.82-18.92Q338.08-16.64 338.08-12.20L338.08-12.20L338.08 0L335.24 0L335.24-11.92Q335.24-15.20 333.66-16.92Q332.08-18.64 329.20-18.64L329.20-18.64Q325.92-18.64 324.04-16.62Q322.16-14.60 322.16-11.04L322.16-11.04L322.16 0L319.32 0L319.32-11.92Q319.32-15.20 317.74-16.92Q316.16-18.64 313.24-18.64L313.24-18.64Q310-18.64 308.10-16.62Q306.20-14.60 306.20-11.04L306.20-11.04L306.20 0L303.36 0L303.36-21.04L306.08-21.04L306.08-17.20Q307.20-19.12 309.20-20.16Q311.20-21.20 313.80-21.20L313.80-21.20Q316.44-21.20 318.38-20.08Q320.32-18.96 321.28-16.76L321.28-16.76Q322.44-18.84 324.62-20.02Q326.80-21.20 329.60-21.20L329.60-21.20Z M347.92-8.40L347.36-28L350.72-28L350.12-8.40L347.92-8.40ZM349.04 0.20Q348.16 0.20 347.54-0.42Q346.92-1.04 346.92-1.88L346.92-1.88Q346.92-2.76 347.52-3.34Q348.12-3.92 349.04-3.92L349.04-3.92Q349.92-3.92 350.52-3.34Q351.12-2.76 351.12-1.88L351.12-1.88Q351.12-1.04 350.52-0.42Q349.92 0.20 349.04 0.20L349.04 0.20Z M385.44 0.24Q381.28 0.24 377.94-1.60Q374.60-3.44 372.70-6.70Q370.80-9.96 370.80-14L370.80-14Q370.80-18.04 372.70-21.30Q374.60-24.56 377.96-26.40Q381.32-28.24 385.48-28.24L385.48-28.24Q388.60-28.24 391.24-27.20Q393.88-26.16 395.72-24.16L395.72-24.16L393.84-22.28Q390.56-25.60 385.56-25.60L385.56-25.60Q382.24-25.60 379.52-24.08Q376.80-22.56 375.26-19.92Q373.72-17.28 373.72-14L373.72-14Q373.72-10.72 375.26-8.08Q376.80-5.44 379.52-3.92Q382.24-2.40 385.56-2.40L385.56-2.40Q390.60-2.40 393.84-5.76L393.84-5.76L395.72-3.88Q393.88-1.88 391.22-0.82Q388.56 0.24 385.44 0.24L385.44 0.24Z M410.48-21.20Q414.60-21.20 416.80-19.14Q419.00-17.08 419.00-13.04L419.00-13.04L419.00 0L416.28 0L416.28-3.28Q415.32-1.64 413.46-0.72Q411.60 0.20 409.04 0.20L409.04 0.20Q405.52 0.20 403.44-1.48Q401.36-3.16 401.36-5.92L401.36-5.92Q401.36-8.60 403.30-10.24Q405.24-11.88 409.48-11.88L409.48-11.88L416.16-11.88L416.16-13.16Q416.16-15.88 414.64-17.30Q413.12-18.72 410.20-18.72L410.20-18.72Q408.20-18.72 406.36-18.06Q404.52-17.40 403.20-16.24L403.20-16.24L401.92-18.36Q403.52-19.72 405.76-20.46Q408.00-21.20 410.48-21.20L410.48-21.20ZM409.48-2.04Q411.88-2.04 413.60-3.14Q415.32-4.24 416.16-6.32L416.16-6.32L416.16-9.76L409.56-9.76Q404.16-9.76 404.16-6L404.16-6Q404.16-4.16 405.56-3.10Q406.96-2.04 409.48-2.04L409.48-2.04ZM410.56-24.12Q408.00-24.12 406.28-25.52Q404.56-26.92 404.48-29.28L404.48-29.28L406.48-29.28Q406.52-27.72 407.68-26.80Q408.84-25.88 410.56-25.88L410.56-25.88Q412.28-25.88 413.44-26.80Q414.60-27.72 414.64-29.28L414.64-29.28L416.64-29.28Q416.56-26.92 414.84-25.52Q413.12-24.12 410.56-24.12L410.56-24.12Z M428.72 0L428.72-29.68L431.56-29.68L431.56 0L428.72 0Z M448.84-21.20Q452.96-21.20 455.16-19.14Q457.36-17.08 457.36-13.04L457.36-13.04L457.36 0L454.64 0L454.64-3.28Q453.68-1.64 451.82-0.72Q449.96 0.20 447.40 0.20L447.40 0.20Q443.88 0.20 441.80-1.48Q439.72-3.16 439.72-5.92L439.72-5.92Q439.72-8.60 441.66-10.24Q443.60-11.88 447.84-11.88L447.84-11.88L454.52-11.88L454.52-13.16Q454.52-15.88 453-17.30Q451.48-18.72 448.56-18.72L448.56-18.72Q446.56-18.72 444.72-18.06Q442.88-17.40 441.56-16.24L441.56-16.24L440.28-18.36Q441.88-19.72 444.12-20.46Q446.36-21.20 448.84-21.20L448.84-21.20ZM447.84-2.04Q450.24-2.04 451.96-3.14Q453.68-4.24 454.52-6.32L454.52-6.32L454.52-9.76L447.92-9.76Q442.52-9.76 442.52-6L442.52-6Q442.52-4.16 443.92-3.10Q445.32-2.04 447.84-2.04L447.84-2.04ZM448.92-24.12Q446.36-24.12 444.64-25.52Q442.92-26.92 442.84-29.28L442.84-29.28L444.84-29.28Q444.88-27.72 446.04-26.80Q447.20-25.88 448.92-25.88L448.92-25.88Q450.64-25.88 451.80-26.80Q452.96-27.72 453-29.28L453-29.28L455-29.28Q454.92-26.92 453.20-25.52Q451.48-24.12 448.92-24.12L448.92-24.12Z M477.16-3.32L478.16-1.28Q477.36-0.56 476.18-0.18Q475 0.20 473.72 0.20L473.72 0.20Q470.76 0.20 469.16-1.40Q467.56-3 467.56-5.92L467.56-5.92L467.56-18.64L463.80-18.64L463.80-21.04L467.56-21.04L467.56-25.64L470.40-25.64L470.40-21.04L476.80-21.04L476.80-18.64L470.40-18.64L470.40-6.08Q470.40-4.20 471.34-3.22Q472.28-2.24 474.04-2.24L474.04-2.24Q474.92-2.24 475.74-2.52Q476.56-2.80 477.16-3.32L477.16-3.32Z M493.16 0.20Q490.12 0.20 487.68-1.18Q485.24-2.56 483.84-5Q482.44-7.44 482.44-10.52L482.44-10.52Q482.44-13.60 483.84-16.04Q485.24-18.48 487.68-19.84Q490.12-21.20 493.16-21.20L493.16-21.20Q496.20-21.20 498.64-19.84Q501.08-18.48 502.46-16.04Q503.84-13.60 503.84-10.52L503.84-10.52Q503.84-7.44 502.46-5Q501.08-2.56 498.64-1.18Q496.20 0.20 493.16 0.20L493.16 0.20ZM493.16-2.32Q495.40-2.32 497.18-3.34Q498.96-4.36 499.96-6.24Q500.96-8.12 500.96-10.52L500.96-10.52Q500.96-12.92 499.96-14.80Q498.96-16.68 497.18-17.70Q495.40-18.72 493.16-18.72L493.16-18.72Q490.92-18.72 489.14-17.70Q487.36-16.68 486.34-14.80Q485.32-12.92 485.32-10.52L485.32-10.52Q485.32-8.12 486.34-6.24Q487.36-4.36 489.14-3.34Q490.92-2.32 493.16-2.32L493.16-2.32Z M514.36-16.92Q515.36-19.04 517.34-20.12Q519.32-21.20 522.24-21.20L522.24-21.20L522.24-18.44L521.56-18.48Q518.24-18.48 516.36-16.44Q514.48-14.40 514.48-10.72L514.48-10.72L514.48 0L511.64 0L511.64-21.04L514.36-21.04L514.36-16.92Z M547.52-10.52L547.48-9.64L529.88-9.64Q530.12-6.36 532.40-4.34Q534.68-2.32 538.16-2.32L538.16-2.32Q540.12-2.32 541.76-3.02Q543.40-3.72 544.60-5.08L544.60-5.08L546.20-3.24Q544.80-1.56 542.70-0.68Q540.60 0.20 538.08 0.20L538.08 0.20Q534.84 0.20 532.34-1.18Q529.84-2.56 528.44-5Q527.04-7.44 527.04-10.52L527.04-10.52Q527.04-13.60 528.38-16.04Q529.72-18.48 532.06-19.84Q534.40-21.20 537.32-21.20L537.32-21.20Q540.24-21.20 542.56-19.84Q544.88-18.48 546.20-16.06Q547.52-13.64 547.52-10.52L547.52-10.52ZM537.32-18.76Q534.28-18.76 532.22-16.82Q530.16-14.88 529.88-11.76L529.88-11.76L544.80-11.76Q544.52-14.88 542.46-16.82Q540.40-18.76 537.32-18.76L537.32-18.76Z M560.96 0.20Q558.40 0.20 556.06-0.54Q553.72-1.28 552.40-2.40L552.40-2.40L553.68-4.64Q555-3.60 557-2.94Q559-2.28 561.16-2.28L561.16-2.28Q564.04-2.28 565.42-3.18Q566.80-4.08 566.80-5.72L566.80-5.72Q566.80-6.88 566.04-7.54Q565.28-8.20 564.12-8.54Q562.96-8.88 561.04-9.20L561.04-9.20Q558.48-9.68 556.92-10.18Q555.36-10.68 554.26-11.88Q553.16-13.08 553.16-15.20L553.16-15.20Q553.16-17.84 555.36-19.52Q557.56-21.20 561.48-21.20L561.48-21.20Q563.52-21.20 565.56-20.66Q567.60-20.12 568.92-19.24L568.92-19.24L567.68-16.96Q565.08-18.76 561.48-18.76L561.48-18.76Q558.76-18.76 557.38-17.80Q556-16.84 556-15.28L556-15.28Q556-14.08 556.78-13.36Q557.56-12.64 558.72-12.30Q559.88-11.96 561.92-11.60L561.92-11.60Q564.44-11.12 565.96-10.64Q567.48-10.16 568.56-9Q569.64-7.84 569.64-5.80L569.64-5.80Q569.64-3.04 567.34-1.42Q565.04 0.20 560.96 0.20L560.96 0.20ZM561.08 4.16Q561.84 4.16 562.32 4.62Q562.80 5.08 562.80 5.72L562.80 5.72Q562.80 6.52 562.36 7.52L562.36 7.52L561.24 10.48L559.68 10.48L560.52 7.20Q559.96 7.08 559.66 6.68Q559.36 6.28 559.36 5.72L559.36 5.72Q559.36 5.04 559.84 4.60Q560.32 4.16 561.08 4.16L561.08 4.16Z M586.96-3.32L587.96-1.28Q587.16-0.56 585.98-0.18Q584.80 0.20 583.52 0.20L583.52 0.20Q580.56 0.20 578.96-1.40Q577.36-3 577.36-5.92L577.36-5.92L577.36-18.64L573.60-18.64L573.60-21.04L577.36-21.04L577.36-25.64L580.20-25.64L580.20-21.04L586.60-21.04L586.60-18.64L580.20-18.64L580.20-6.08Q580.20-4.20 581.14-3.22Q582.08-2.24 583.84-2.24L583.84-2.24Q584.72-2.24 585.54-2.52Q586.36-2.80 586.96-3.32L586.96-3.32Z M612.72-10.52L612.68-9.64L595.08-9.64Q595.32-6.36 597.60-4.34Q599.88-2.32 603.36-2.32L603.36-2.32Q605.32-2.32 606.96-3.02Q608.60-3.72 609.80-5.08L609.80-5.08L611.40-3.24Q610-1.56 607.90-0.68Q605.80 0.20 603.28 0.20L603.28 0.20Q600.04 0.20 597.54-1.18Q595.04-2.56 593.64-5Q592.24-7.44 592.24-10.52L592.24-10.52Q592.24-13.60 593.58-16.04Q594.92-18.48 597.26-19.84Q599.60-21.20 602.52-21.20L602.52-21.20Q605.44-21.20 607.76-19.84Q610.08-18.48 611.40-16.06Q612.72-13.64 612.72-10.52L612.72-10.52ZM602.52-18.76Q599.48-18.76 597.42-16.82Q595.36-14.88 595.08-11.76L595.08-11.76L610-11.76Q609.72-14.88 607.66-16.82Q605.60-18.76 602.52-18.76L602.52-18.76Z M633 0L633-21.04L635.84-21.04L635.84 0L633 0ZM640.04-24.32L637.48-24.32L634.44-27.56L631.40-24.32L628.84-24.32L633.04-29.28L635.84-29.28L640.04-24.32Z M656.48-21.20Q660.44-21.20 662.78-18.90Q665.12-16.60 665.12-12.20L665.12-12.20L665.12 0L662.28 0L662.28-11.92Q662.28-15.20 660.64-16.92Q659-18.64 655.96-18.64L655.96-18.64Q652.56-18.64 650.58-16.62Q648.60-14.60 648.60-11.04L648.60-11.04L648.60 0L645.76 0L645.76-21.04L648.48-21.04L648.48-17.16Q649.64-19.08 651.70-20.14Q653.76-21.20 656.48-21.20L656.48-21.20Z M698.16-21.20Q701.12-21.20 703.52-19.86Q705.92-18.52 707.28-16.08Q708.64-13.64 708.64-10.52L708.64-10.52Q708.64-7.36 707.28-4.92Q705.92-2.48 703.54-1.14Q701.16 0.20 698.16 0.20L698.16 0.20Q695.60 0.20 693.54-0.86Q691.48-1.92 690.16-3.96L690.16-3.96L690.16 7.76L687.32 7.76L687.32-21.04L690.04-21.04L690.04-16.88Q691.32-18.96 693.42-20.08Q695.52-21.20 698.16-21.20L698.16-21.20ZM697.96-2.32Q700.16-2.32 701.96-3.34Q703.76-4.36 704.78-6.24Q705.80-8.12 705.80-10.52L705.80-10.52Q705.80-12.92 704.78-14.78Q703.76-16.64 701.96-17.68Q700.16-18.72 697.96-18.72L697.96-18.72Q695.72-18.72 693.94-17.68Q692.16-16.64 691.14-14.78Q690.12-12.92 690.12-10.52L690.12-10.52Q690.12-8.12 691.14-6.24Q692.16-4.36 693.94-3.34Q695.72-2.32 697.96-2.32L697.96-2.32Z M719.16-16.92Q720.16-19.04 722.14-20.12Q724.12-21.20 727.04-21.20L727.04-21.20L727.04-18.44L726.36-18.48Q723.04-18.48 721.16-16.44Q719.28-14.40 719.28-10.72L719.28-10.72L719.28 0L716.44 0L716.44-21.04L719.16-21.04L719.16-16.92Z M752.32-10.52L752.28-9.64L734.68-9.64Q734.92-6.36 737.20-4.34Q739.48-2.32 742.96-2.32L742.96-2.32Q744.92-2.32 746.56-3.02Q748.20-3.72 749.40-5.08L749.40-5.08L751-3.24Q749.60-1.56 747.50-0.68Q745.40 0.20 742.88 0.20L742.88 0.20Q739.64 0.20 737.14-1.18Q734.64-2.56 733.24-5Q731.84-7.44 731.84-10.52L731.84-10.52Q731.84-13.60 733.18-16.04Q734.52-18.48 736.86-19.84Q739.20-21.20 742.12-21.20L742.12-21.20Q745.04-21.20 747.36-19.84Q749.68-18.48 751-16.06Q752.32-13.64 752.32-10.52L752.32-10.52ZM742.12-18.76Q739.08-18.76 737.02-16.82Q734.96-14.88 734.68-11.76L734.68-11.76L749.60-11.76Q749.32-14.88 747.26-16.82Q745.20-18.76 742.12-18.76L742.12-18.76Z M761.28-2.36L774.76-2.36L774.76 0L757.64 0L757.64-1.88L770.88-18.64L757.88-18.64L757.88-21.04L774.52-21.04L774.52-19.16L761.28-2.36Z M800.36-10.52L800.32-9.64L782.72-9.64Q782.96-6.36 785.24-4.34Q787.52-2.32 791-2.32L791-2.32Q792.96-2.32 794.60-3.02Q796.24-3.72 797.44-5.08L797.44-5.08L799.04-3.24Q797.64-1.56 795.54-0.68Q793.44 0.20 790.92 0.20L790.92 0.20Q787.68 0.20 785.18-1.18Q782.68-2.56 781.28-5Q779.88-7.44 779.88-10.52L779.88-10.52Q779.88-13.60 781.22-16.04Q782.56-18.48 784.90-19.84Q787.24-21.20 790.16-21.20L790.16-21.20Q793.08-21.20 795.40-19.84Q797.72-18.48 799.04-16.06Q800.36-13.64 800.36-10.52L800.36-10.52ZM790.16-18.76Q787.12-18.76 785.06-16.82Q783-14.88 782.72-11.76L782.72-11.76L797.64-11.76Q797.36-14.88 795.30-16.82Q793.24-18.76 790.16-18.76L790.16-18.76Z M818.88-21.20Q822.84-21.20 825.18-18.90Q827.52-16.60 827.52-12.20L827.52-12.20L827.52 0L824.68 0L824.68-11.92Q824.68-15.20 823.04-16.92Q821.40-18.64 818.36-18.64L818.36-18.64Q814.96-18.64 812.98-16.62Q811.00-14.60 811.00-11.04L811.00-11.04L811.00 0L808.16 0L808.16-21.04L810.88-21.04L810.88-17.16Q812.04-19.08 814.10-20.14Q816.16-21.20 818.88-21.20L818.88-21.20Z M847.32-3.32L848.32-1.28Q847.52-0.56 846.34-0.18Q845.16 0.20 843.88 0.20L843.88 0.20Q840.92 0.20 839.32-1.40Q837.72-3 837.72-5.92L837.72-5.92L837.72-18.64L833.96-18.64L833.96-21.04L837.72-21.04L837.72-25.64L840.56-25.64L840.56-21.04L846.96-21.04L846.96-18.64L840.56-18.64L840.56-6.08Q840.56-4.20 841.50-3.22Q842.44-2.24 844.20-2.24L844.20-2.24Q845.08-2.24 845.90-2.52Q846.72-2.80 847.32-3.32L847.32-3.32Z M871.60-21.04L874.44-21.04L874.44 0L871.72 0L871.72-3.84Q870.60-1.92 868.64-0.86Q866.68 0.20 864.16 0.20L864.16 0.20Q860.04 0.20 857.66-2.10Q855.28-4.40 855.28-8.84L855.28-8.84L855.28-21.04L858.12-21.04L858.12-9.12Q858.12-5.80 859.76-4.08Q861.40-2.36 864.44-2.36L864.44-2.36Q867.76-2.36 869.68-4.38Q871.60-6.40 871.60-10L871.60-10L871.60-21.04Z M884.40 0L884.40-29.68L887.24-29.68L887.24 0L884.40 0Z M919.72-3.32L920.72-1.28Q919.92-0.56 918.74-0.18Q917.56 0.20 916.28 0.20L916.28 0.20Q913.32 0.20 911.72-1.40Q910.12-3 910.12-5.92L910.12-5.92L910.12-18.64L906.36-18.64L906.36-21.04L910.12-21.04L910.12-25.64L912.96-25.64L912.96-21.04L919.36-21.04L919.36-18.64L912.96-18.64L912.96-6.08Q912.96-4.20 913.90-3.22Q914.84-2.24 916.60-2.24L916.60-2.24Q917.48-2.24 918.30-2.52Q919.12-2.80 919.72-3.32L919.72-3.32Z M935.24-21.20Q939.36-21.20 941.56-19.14Q943.76-17.08 943.76-13.04L943.76-13.04L943.76 0L941.04 0L941.04-3.28Q940.08-1.64 938.22-0.72Q936.36 0.20 933.80 0.20L933.80 0.20Q930.28 0.20 928.20-1.48Q926.12-3.16 926.12-5.92L926.12-5.92Q926.12-8.60 928.06-10.24Q930-11.88 934.24-11.88L934.24-11.88L940.92-11.88L940.92-13.16Q940.92-15.88 939.40-17.30Q937.88-18.72 934.96-18.72L934.96-18.72Q932.96-18.72 931.12-18.06Q929.28-17.40 927.96-16.24L927.96-16.24L926.68-18.36Q928.28-19.72 930.52-20.46Q932.76-21.20 935.24-21.20L935.24-21.20ZM934.24-2.04Q936.64-2.04 938.36-3.14Q940.08-4.24 940.92-6.32L940.92-6.32L940.92-9.76L934.32-9.76Q928.92-9.76 928.92-6L928.92-6Q928.92-4.16 930.32-3.10Q931.72-2.04 934.24-2.04L934.24-2.04ZM935.32-24.12Q932.76-24.12 931.04-25.52Q929.32-26.92 929.24-29.28L929.24-29.28L931.24-29.28Q931.28-27.72 932.44-26.80Q933.60-25.88 935.32-25.88L935.32-25.88Q937.04-25.88 938.20-26.80Q939.36-27.72 939.40-29.28L939.40-29.28L941.40-29.28Q941.32-26.92 939.60-25.52Q937.88-24.12 935.32-24.12L935.32-24.12Z M969.60-21.04L972.44-21.04L972.44 0L969.72 0L969.72-3.84Q968.60-1.92 966.64-0.86Q964.68 0.20 962.16 0.20L962.16 0.20Q958.04 0.20 955.66-2.10Q953.28-4.40 953.28-8.84L953.28-8.84L953.28-21.04L956.12-21.04L956.12-9.12Q956.12-5.80 957.76-4.08Q959.40-2.36 962.44-2.36L962.44-2.36Q965.76-2.36 967.68-4.38Q969.60-6.40 969.60-10L969.60-10L969.60-21.04Z M982.68 0.20Q981.80 0.20 981.18-0.44Q980.56-1.08 980.56-2L980.56-2Q980.56-2.92 981.18-3.54Q981.80-4.16 982.68-4.16L982.68-4.16Q983.56-4.16 984.20-3.54Q984.84-2.92 984.84-2L984.84-2Q984.84-1.08 984.20-0.44Q983.56 0.20 982.68 0.20L982.68 0.20Z"/>
            </g>
        </svg>
    </g>
    <g opacity="1" transform="rotate(0 383 255.8404)">
        <svg width="380" height="33.0637" x="383" y="255.8404" version="1.1" preserveAspectRatio="none"
             viewBox="3.4 -28 327.32 28.48">
            <g transform="matrix(1 0 0 1 0 0)" class="aD6z1nYkhcolor">
                <path id="id-D6z1nYkh21"
                      d="M5.12-23.80Q5.12-25.40 4.74-26.22Q4.36-27.04 3.88-27.32Q3.40-27.60 3.40-27.52L3.40-27.52L9.76-27.52Q9.76-27.60 9.28-27.32Q8.80-27.04 8.40-26.22Q8-25.40 8-23.80L8-23.80L8-1.60L14.56-1.60Q16.36-1.60 17.66-2.34Q18.96-3.08 19.52-4.24L19.52-4.24L18.80 0L3.40 0Q3.40 0.12 3.88-0.18Q4.36-0.48 4.74-1.38Q5.12-2.28 5.12-4L5.12-4L5.12-23.80Z M33.04-2.32Q31.04 0.48 28.12 0.48L28.12 0.48Q26.08 0.48 24.76-0.86Q23.44-2.20 23.44-4.96L23.44-4.96L23.44-10.64Q23.44-12.28 22.94-13.16Q22.44-14.04 21.80-14.36Q21.16-14.68 21.16-14.56L21.16-14.56L26-14.56L26-5.56Q26-3.68 27.02-2.68Q28.04-1.68 29.44-1.68L29.44-1.68Q30.84-1.68 31.94-2.62Q33.04-3.56 33.04-5.08L33.04-5.08L33.04-10.92Q33.04-12.48 32.64-13.28Q32.24-14.08 31.72-14.36Q31.20-14.64 31.20-14.56L31.20-14.56L35.60-14.56L35.60-4.52Q35.60-2.84 36.14-2.22Q36.68-1.60 37.36-1.60L37.36-1.60L37.60-1.60L33.04 0.48L33.04-2.32Z M42-10.04Q42-11.72 41.46-12.34Q40.92-12.96 40.24-12.96L40.24-12.96L44.56-14.88L44.56-4Q44.56-2.24 44.92-1.36Q45.28-0.48 45.72-0.18Q46.16 0.12 46.16 0L46.16 0L40.40 0Q40.40 0.12 40.84-0.18Q41.28-0.48 41.64-1.36Q42-2.24 42-4L42-4L42-10.04ZM43.24-19.72Q42.36-19.72 41.86-20.30Q41.36-20.88 41.36-21.64L41.36-21.64Q41.36-22.40 41.86-22.98Q42.36-23.56 43.24-23.56L43.24-23.56Q44.12-23.56 44.62-22.98Q45.12-22.40 45.12-21.64L45.12-21.64Q45.12-20.88 44.62-20.30Q44.12-19.72 43.24-19.72L43.24-19.72Z M53.32-1.60L58.32-1.60Q59.88-1.60 60.46-2.44Q61.04-3.28 61.20-4.12L61.20-4.12L61.20 0L49.28 0L57.36-12.96L53.16-12.96Q51.40-12.96 50.72-12.06Q50.04-11.16 49.96-10.36L49.96-10.36L49.96-14.56L61.28-14.56L53.32-1.60Z M76.76 0.48Q75.48 0.44 74.60-0.20Q73.72-0.84 73.60-1.68L73.60-1.68Q72.88-0.64 71.70-0.08Q70.52 0.48 69.36 0.48L69.36 0.48Q67.52 0.48 66.28-0.58Q65.04-1.64 65.04-3.36L65.04-3.36Q65.04-7.80 73.36-7.80L73.36-7.80L73.36-8.24Q73.36-10.44 72.72-11.48L72.72-11.48Q71.84-12.96 69.84-12.96L69.84-12.96Q68.28-12.96 67.26-12.04Q66.24-11.12 66.24-9.64L66.24-9.64Q66-10.04 65.86-10.36Q65.72-10.68 65.72-11.24L65.72-11.24Q65.72-12.68 67.08-13.78Q68.44-14.88 70.64-14.88L70.64-14.88Q73.76-14.88 75.08-12.80L75.08-12.80Q75.52-12.16 75.72-11.20Q75.92-10.24 75.92-8.68L75.92-8.68L75.92-3.92Q75.92-2.68 76.62-2Q77.32-1.32 78.60-1.32L78.60-1.32L79.12-1.32L76.76 0.48ZM73.36-6.60Q70.16-6.60 69.04-5.80Q67.92-5 67.92-3.64L67.92-3.64Q67.92-2.52 68.52-1.88Q69.12-1.24 70.12-1.24L70.12-1.24Q70.88-1.24 71.56-1.60Q72.24-1.96 72.72-2.60L72.72-2.60Q73.36-3.44 73.36-4.88L73.36-4.88L73.36-6.60Z M110.68-2.24Q106.92 0 100.64 0L100.64 0L92.76 0Q92.76 0.12 93.24-0.22Q93.72-0.56 94.10-1.48Q94.48-2.40 94.48-4.16L94.48-4.16L94.48-23.84Q94.48-25.40 94.10-26.22Q93.72-27.04 93.24-27.32Q92.76-27.60 92.76-27.52L92.76-27.52L100.60-27.52Q106.72-27.52 110.28-25.52L110.28-25.52Q113.44-23.76 115.16-20.76Q116.88-17.76 116.88-14L116.88-14Q116.88-9.92 115.26-6.94Q113.64-3.96 110.68-2.24L110.68-2.24ZM109.12-23.72Q107.36-24.88 105.36-25.40Q103.36-25.92 100.60-25.92L100.60-25.92L97.36-25.92L97.36-1.60L100.60-1.60Q103.88-1.60 105.98-2.16Q108.08-2.72 109.60-3.88L109.60-3.88Q111.56-5.40 112.62-7.86Q113.68-10.32 113.68-13.60L113.68-13.60Q113.68-17.08 112.46-19.70Q111.24-22.32 109.12-23.72L109.12-23.72Z M131.92-2.32Q129.92 0.48 127 0.48L127 0.48Q124.96 0.48 123.64-0.86Q122.32-2.20 122.32-4.96L122.32-4.96L122.32-10.64Q122.32-12.28 121.82-13.16Q121.32-14.04 120.68-14.36Q120.04-14.68 120.04-14.56L120.04-14.56L124.88-14.56L124.88-5.56Q124.88-3.68 125.90-2.68Q126.92-1.68 128.32-1.68L128.32-1.68Q129.72-1.68 130.82-2.62Q131.92-3.56 131.92-5.08L131.92-5.08L131.92-10.92Q131.92-12.48 131.52-13.28Q131.12-14.08 130.60-14.36Q130.08-14.64 130.08-14.56L130.08-14.56L134.48-14.56L134.48-4.52Q134.48-2.84 135.02-2.22Q135.56-1.60 136.24-1.60L136.24-1.60L136.48-1.60L131.92 0.48L131.92-2.32Z M143.44-14.88L143.44-12.16Q144.44-13.40 145.68-14.14Q146.92-14.88 148.28-14.88L148.28-14.88Q149.76-14.88 150.90-14.18Q152.04-13.48 152.56-12.16L152.56-12.16Q153.64-13.52 155.02-14.20Q156.40-14.88 157.88-14.88L157.88-14.88Q160.04-14.88 161.34-13.50Q162.64-12.12 162.64-9.52L162.64-9.52L162.64-3.96Q162.64-1.76 163.20-0.92Q163.76-0.08 164.20 0L164.20 0L158.52 0Q159-0.08 159.54-0.92Q160.08-1.76 160.08-4L160.08-4L160.08-8.56Q160.08-9.92 159.72-10.72Q159.36-11.52 158.76-12.04L158.76-12.04Q157.84-12.80 156.56-12.80L156.56-12.80Q155.16-12.80 154.10-11.86Q153.04-10.92 153.04-9.24L153.04-9.24L153.04-4Q153.04-1.76 153.58-0.92Q154.12-0.08 154.60 0L154.60 0L148.92 0Q149.40-0.08 149.94-0.92Q150.48-1.76 150.48-4L150.48-4L150.48-8.56Q150.48-9.92 150.12-10.72Q149.76-11.52 149.16-12.04L149.16-12.04Q148.24-12.80 146.96-12.80L146.96-12.80Q145.52-12.80 144.48-11.86Q143.44-10.92 143.44-9.24L143.44-9.24L143.44-4Q143.44-1.72 144-0.90Q144.56-0.08 145.04 0L145.04 0L139.36 0Q139.84-0.08 140.36-0.92Q140.88-1.76 140.88-4L140.88-4L140.88-10.04Q140.88-11.72 140.34-12.34Q139.80-12.96 139.12-12.96L139.12-12.96L143.44-14.88Z M169.04-10.04Q169.04-11.72 168.50-12.34Q167.96-12.96 167.28-12.96L167.28-12.96L171.60-14.88L171.60-4Q171.60-2.24 171.96-1.36Q172.32-0.48 172.76-0.18Q173.20 0.12 173.20 0L173.20 0L167.44 0Q167.44 0.12 167.88-0.18Q168.32-0.48 168.68-1.36Q169.04-2.24 169.04-4L169.04-4L169.04-10.04ZM170.28-19.72Q169.40-19.72 168.90-20.30Q168.40-20.88 168.40-21.64L168.40-21.64Q168.40-22.40 168.90-22.98Q169.40-23.56 170.28-23.56L170.28-23.56Q171.16-23.56 171.66-22.98Q172.16-22.40 172.16-21.64L172.16-21.64Q172.16-20.88 171.66-20.30Q171.16-19.72 170.28-19.72L170.28-19.72Z M181.96 0.48Q180 0.48 179-0.86Q178-2.20 178-4.08L178-4.08L178-12.96L175.76-12.96L180.56-18.40L180.56-14.56L185.68-14.56L185.68-12.96L180.56-12.96L180.56-4.52Q180.56-3 181.36-2.22Q182.16-1.44 183.20-1.44L183.20-1.44Q184-1.44 184.76-1.92Q185.52-2.40 186-3.24L186-3.24Q185.40 0.48 181.96 0.48L181.96 0.48Z M192.72-11.24Q193.32-12.52 194.70-13.70Q196.08-14.88 197.48-14.88L197.48-14.88Q198.36-14.88 198.80-14.64L198.80-14.64L198.80-11.36Q197.92-12.44 196.32-12.44L196.32-12.44Q194.64-12.44 193.68-10.98Q192.72-9.52 192.72-7.24L192.72-7.24L192.72-4Q192.72-1.76 193.24-0.92Q193.76-0.08 194.24 0L194.24 0L188.60 0Q189.08-0.08 189.62-0.90Q190.16-1.72 190.16-4L190.16-4L190.16-10.04Q190.16-11.72 189.62-12.34Q189.08-12.96 188.40-12.96L188.40-12.96L192.72-14.88L192.72-11.24Z M202.96-10.04Q202.96-11.72 202.42-12.34Q201.88-12.96 201.20-12.96L201.20-12.96L205.52-14.88L205.52-4Q205.52-2.24 205.88-1.36Q206.24-0.48 206.68-0.18Q207.12 0.12 207.12 0L207.12 0L201.36 0Q201.36 0.12 201.80-0.18Q202.24-0.48 202.60-1.36Q202.96-2.24 202.96-4L202.96-4L202.96-10.04ZM204.20-19.72Q203.32-19.72 202.82-20.30Q202.32-20.88 202.32-21.64L202.32-21.64Q202.32-22.40 202.82-22.98Q203.32-23.56 204.20-23.56L204.20-23.56Q205.08-23.56 205.58-22.98Q206.08-22.40 206.08-21.64L206.08-21.64Q206.08-20.88 205.58-20.30Q205.08-19.72 204.20-19.72L204.20-19.72Z M221.52-2.32Q219.52 0.48 216.60 0.48L216.60 0.48Q214.56 0.48 213.24-0.86Q211.92-2.20 211.92-4.96L211.92-4.96L211.92-10.64Q211.92-12.28 211.42-13.16Q210.92-14.04 210.28-14.36Q209.64-14.68 209.64-14.56L209.64-14.56L214.48-14.56L214.48-5.56Q214.48-3.68 215.50-2.68Q216.52-1.68 217.92-1.68L217.92-1.68Q219.32-1.68 220.42-2.62Q221.52-3.56 221.52-5.08L221.52-5.08L221.52-10.92Q221.52-12.48 221.12-13.28Q220.72-14.08 220.20-14.36Q219.68-14.64 219.68-14.56L219.68-14.56L224.08-14.56L224.08-4.52Q224.08-2.84 224.62-2.22Q225.16-1.60 225.84-1.60L225.84-1.60L226.08-1.60L221.52 0.48L221.52-2.32Z M262.96-2.44Q261.44-1.20 259.00-0.36Q256.56 0.48 254.08 0.48L254.08 0.48Q250.36 0.48 247.16-1.24Q243.96-2.96 242.02-6.20Q240.08-9.44 240.08-13.80L240.08-13.80Q240.08-17.88 241.86-21.12Q243.64-24.36 246.94-26.18Q250.24-28 254.64-28L254.64-28Q259.32-28 262.96-25.96L262.96-25.96L262.96-21.52Q261.72-23.72 259.36-25.02Q257.00-26.32 254.32-26.32L254.32-26.32Q250.92-26.32 248.42-24.72Q245.92-23.12 244.60-20.34Q243.28-17.56 243.28-14.12L243.28-14.12Q243.28-10.24 244.78-7.36Q246.28-4.48 248.84-2.94Q251.40-1.40 254.56-1.40L254.56-1.40Q259.64-1.40 262.96-4.36L262.96-4.36L262.96-2.44Z M271.44-11.24Q272.04-12.52 273.42-13.70Q274.80-14.88 276.20-14.88L276.20-14.88Q277.08-14.88 277.52-14.64L277.52-14.64L277.52-11.36Q276.64-12.44 275.04-12.44L275.04-12.44Q273.36-12.44 272.40-10.98Q271.44-9.52 271.44-7.24L271.44-7.24L271.44-4Q271.44-1.76 271.96-0.92Q272.48-0.08 272.96 0L272.96 0L267.32 0Q267.80-0.08 268.34-0.90Q268.88-1.72 268.88-4L268.88-4L268.88-10.04Q268.88-11.72 268.34-12.34Q267.80-12.96 267.12-12.96L267.12-12.96L271.44-14.88L271.44-11.24Z M281.68-10.04Q281.68-11.72 281.14-12.34Q280.60-12.96 279.92-12.96L279.92-12.96L284.24-14.88L284.24-4Q284.24-2.24 284.60-1.36Q284.96-0.48 285.40-0.18Q285.84 0.12 285.84 0L285.84 0L280.08 0Q280.08 0.12 280.52-0.18Q280.96-0.48 281.32-1.36Q281.68-2.24 281.68-4L281.68-4L281.68-10.04ZM282.92-19.72Q282.04-19.72 281.54-20.30Q281.04-20.88 281.04-21.64L281.04-21.64Q281.04-22.40 281.54-22.98Q282.04-23.56 282.92-23.56L282.92-23.56Q283.80-23.56 284.30-22.98Q284.80-22.40 284.80-21.64L284.80-21.64Q284.80-20.88 284.30-20.30Q283.80-19.72 282.92-19.72L282.92-19.72Z M294.28 0.48Q293.08 0.48 291.80 0.08Q290.52-0.32 289.68-0.96L289.68-0.96L289.68-4.48Q290.44-2.60 291.74-1.78Q293.04-0.96 294.56-0.96L294.56-0.96Q295.80-0.96 296.58-1.64Q297.36-2.32 297.36-3.12L297.36-3.12Q297.36-4 296.56-4.60Q295.76-5.20 294.12-5.96L294.12-5.96Q292.00-6.96 290.84-7.92Q289.68-8.88 289.68-10.52L289.68-10.52Q289.68-12.32 291.04-13.60Q292.40-14.88 294.60-14.88L294.60-14.88Q296.12-14.88 297.24-14.52Q298.36-14.16 298.92-13.72L298.92-13.72L298.28-10.72Q297.80-12.08 296.68-12.76Q295.56-13.44 294.32-13.44L294.32-13.44Q293.24-13.44 292.54-12.80Q291.84-12.16 291.84-11.36L291.84-11.36Q291.84-10.28 292.70-9.64Q293.56-9 295.32-8.24L295.32-8.24Q297.40-7.36 298.50-6.46Q299.60-5.56 299.60-3.92L299.60-3.92Q299.60-2.76 298.96-1.76Q298.32-0.76 297.10-0.14Q295.88 0.48 294.28 0.48L294.28 0.48Z M308.36 0.48Q306.40 0.48 305.40-0.86Q304.40-2.20 304.40-4.08L304.40-4.08L304.40-12.96L302.16-12.96L306.96-18.40L306.96-14.56L312.08-14.56L312.08-12.96L306.96-12.96L306.96-4.52Q306.96-3 307.76-2.22Q308.56-1.44 309.60-1.44L309.60-1.44Q310.40-1.44 311.16-1.92Q311.92-2.40 312.40-3.24L312.40-3.24Q311.80 0.48 308.36 0.48L308.36 0.48Z M326.16-2.32Q324.16 0.48 321.24 0.48L321.24 0.48Q319.20 0.48 317.88-0.86Q316.56-2.20 316.56-4.96L316.56-4.96L316.56-10.64Q316.56-12.28 316.06-13.16Q315.56-14.04 314.92-14.36Q314.28-14.68 314.28-14.56L314.28-14.56L319.12-14.56L319.12-5.56Q319.12-3.68 320.14-2.68Q321.16-1.68 322.56-1.68L322.56-1.68Q323.96-1.68 325.06-2.62Q326.16-3.56 326.16-5.08L326.16-5.08L326.16-10.92Q326.16-12.48 325.76-13.28Q325.36-14.08 324.84-14.36Q324.32-14.64 324.32-14.56L324.32-14.56L328.72-14.56L328.72-4.52Q328.72-2.84 329.26-2.22Q329.80-1.60 330.48-1.60L330.48-1.60L330.72-1.60L326.16 0.48L326.16-2.32Z"/>
            </g>
        </svg>
    </g>
    <g filter="url(#L5g6HXEkyY)">
        <g opacity="0.41" transform="rotate(0 491.0256 155.8404)">
            <svg width="99.9488" height="100" x="491.0256" y="155.8404" version="1.1" preserveAspectRatio="none"
                 viewBox="5.0240092277526855 4.999873638153076 89.9540023803711 90.00012969970703">
                <g transform="matrix(1 0 0 1 0 0)" class="am92r7A-Vdcolors-0">
                    <path d="M57.717,28.779c-4.659-3.318-12.896-8.897-21.87-13.648l-4.48-10.092C38.515,4.122,50.956,19.538,57.717,28.779z   M80.605,22.229c0,0-3.438-1.47-6.74-1.47c-5.544,0-10.685,3.546-12.467,9.097l-1.177,3.665c0,0-32.373-24.724-50.682-24.727  c-1.628,0-3.142,0.195-4.515,0.62l50.529,50.529l-4.972,4.944c-4.002,3.775-7.079,8.526-8.81,13.882  c-2.711,8.39-2.872,15.945-2.869,16.231l13.89-13.89c0.357-6.009,2.805-11.456,6.633-15.621c0.635-0.687,9.946-9.679,9.946-9.679  c3.993-3.84,6.249-9.141,6.249-14.681v-7.986c0-3.549,2.246-6.71,5.597-7.878l13.761-4.795L80.605,22.229z"></path>
                </g>
            </svg>
        </g>
    </g>
    <g opacity="0.9" transform="rotate(0 567.0256 155.8404)">
        <svg width="99.9488" height="100" x="567.0256" y="155.8404" version="1.1" preserveAspectRatio="none"
             viewBox="5.0240092277526855 4.999873638153076 89.9540023803711 90.00012969970703">
            <g transform="matrix(-1 0 0 1 100.00202083587646 0)" class="aDGSFcrI09Gcolors-0">
                <path d="M57.717,28.779c-4.659-3.318-12.896-8.897-21.87-13.648l-4.48-10.092C38.515,4.122,50.956,19.538,57.717,28.779z   M80.605,22.229c0,0-3.438-1.47-6.74-1.47c-5.544,0-10.685,3.546-12.467,9.097l-1.177,3.665c0,0-32.373-24.724-50.682-24.727  c-1.628,0-3.142,0.195-4.515,0.62l50.529,50.529l-4.972,4.944c-4.002,3.775-7.079,8.526-8.81,13.882  c-2.711,8.39-2.872,15.945-2.869,16.231l13.89-13.89c0.357-6.009,2.805-11.456,6.633-15.621c0.635-0.687,9.946-9.679,9.946-9.679  c3.993-3.84,6.249-9.141,6.249-14.681v-7.986c0-3.549,2.246-6.71,5.597-7.878l13.761-4.795L80.605,22.229z"></path>
            </g>
        </svg>
    </g>
</svg>