<?xml version="1.0" encoding="UTF-8" standalone="no"?>
<svg
   viewBox="383 155.8404 380 161.2651"
   width="5000"
   height="2121.9092105263153"
   preserveAspectRatio="none"
   version="1.1"
   id="svg11"
   sodipodi:docname="Original2.svg"
   inkscape:version="1.3 (0e150ed6c4, 2023-07-21)"
   xmlns:inkscape="http://www.inkscape.org/namespaces/inkscape"
   xmlns:sodipodi="http://sodipodi.sourceforge.net/DTD/sodipodi-0.dtd"
   xmlns="http://www.w3.org/2000/svg"
   xmlns:svg="http://www.w3.org/2000/svg">
  <sodipodi:namedview
     id="namedview11"
     pagecolor="#ffffff"
     bordercolor="#000000"
     borderopacity="0.25"
     inkscape:showpageshadow="2"
     inkscape:pageopacity="0.0"
     inkscape:pagecheckerboard="0"
     inkscape:deskcolor="#d1d1d1"
     inkscape:zoom="0.2484"
     inkscape:cx="2500"
     inkscape:cy="1060.789"
     inkscape:window-width="1920"
     inkscape:window-height="1009"
     inkscape:window-x="-8"
     inkscape:window-y="-8"
     inkscape:window-maximized="1"
     inkscape:current-layer="svg11" />
  <defs
     id="defs1" />
  <style
     id="style1">.a6izo4zJpcolor {fill:#000000;fill-opacity:1;}.aD6z1nYkhcolor {fill:#000000;fill-opacity:1;}.aDGSFcrI09Gcolors-0 {fill:#FBCF21;fill-opacity:1;}.aL5g6HXEkyY0filter-floo {flood-color:#FBCF21;flood-opacity:0.5;}.am92r7A-Vdcolors-0 {fill:#000000;fill-opacity:1;}.am92r7A-Vdcolors-1 {fill:#F3B340;fill-opacity:1;}.am92r7A-Vdcolors-2 {fill:#FDCEAC;fill-opacity:1;}.am92r7A-Vdcolors-3 {fill:#F3F0ED;fill-opacity:1;}.am92r7A-Vdcolors-4 {fill:#F3B340;fill-opacity:1;}.am92r7A-Vdcolors-5 {fill:#FDCEAC;fill-opacity:1;}.am92r7A-Vdcolors-6 {fill:#F3F0ED;fill-opacity:1;}.am92r7A-Vdcolors-7 {fill:#F3B340;fill-opacity:1;}.ay5Kt2Ohpc0filter-floo {flood-color:#3D3C3B;flood-opacity:0.46;}.icon2 {fill:#F3B340;fill-opacity:1;}.icon3 {fill:#FDCEAC;fill-opacity:1;}.icon3-str {stroke:#FDCEAC;stroke-opacity:1;}.icon4 {fill:#F3F0ED;fill-opacity:1;}.icon5 {fill:#F3B340;fill-opacity:1;}.icon6 {fill:#FDCEAC;fill-opacity:1;}.icon7 {fill:#F3F0ED;fill-opacity:1;}.icon8 {fill:#F3B340;fill-opacity:1;}</style>
  <defs
     id="defs3">
    <filter
       x="491.0256"
       y="155.8404"
       width="103.9488"
       height="104"
       id="L5g6HXEkyY"
       filterUnits="userSpaceOnUse"
       primitiveUnits="userSpaceOnUse"
       color-interpolation-filters="sRGB">
      <feGaussianBlur
         in="SourceGraphic"
         stdDeviation="0"
         id="feGaussianBlur1" />
      <feOffset
         dx="4"
         dy="4"
         result="pfbcxGveCf"
         id="feOffset1" />
      <feFlood
         flood-color="#FBCF21"
         flood-opacity="0.5"
         in="pfbcxGveCf"
         id="feFlood1" />
      <feComposite
         in2="pfbcxGveCf"
         operator="in"
         result="m-z6ZfqUg"
         id="feComposite1" />
      <feMerge
         result="a94Us5Ctb20"
         id="feMerge2">
        <feMergeNode
           in="m-z6ZfqUg"
           id="feMergeNode1" />
        <feMergeNode
           in="SourceGraphic"
           id="feMergeNode2" />
      </feMerge>
    </filter>
    <filter
       x="567.0256"
       y="155.8404"
       width="99.9488"
       height="100"
       id="y5Kt2Ohpc"
       filterUnits="userSpaceOnUse"
       primitiveUnits="userSpaceOnUse"
       color-interpolation-filters="sRGB">
      <feMerge
         id="feMerge3">
        <feMergeNode
           in="SourceGraphic"
           id="feMergeNode3" />
      </feMerge>
    </filter>
  </defs>
  <g
     opacity="1"
     transform="rotate(0 395.8205 302.5186)"
     id="g4" />
  <g
     opacity="1"
     transform="rotate(0 383 255.8404)"
     id="g6">
    <svg
       width="380"
       height="33.0637"
       x="383"
       y="255.8404"
       version="1.1"
       preserveAspectRatio="none"
       viewBox="3.4 -28 327.32 28.48"
       id="svg5">
      <g
         transform="matrix(1 0 0 1 0 0)"
         class="aD6z1nYkhcolor"
         id="g5">
        <path
           id="id-D6z1nYkh21"
           d="M5.12-23.80Q5.12-25.40 4.74-26.22Q4.36-27.04 3.88-27.32Q3.40-27.60 3.40-27.52L3.40-27.52L9.76-27.52Q9.76-27.60 9.28-27.32Q8.80-27.04 8.40-26.22Q8-25.40 8-23.80L8-23.80L8-1.60L14.56-1.60Q16.36-1.60 17.66-2.34Q18.96-3.08 19.52-4.24L19.52-4.24L18.80 0L3.40 0Q3.40 0.12 3.88-0.18Q4.36-0.48 4.74-1.38Q5.12-2.28 5.12-4L5.12-4L5.12-23.80Z M33.04-2.32Q31.04 0.48 28.12 0.48L28.12 0.48Q26.08 0.48 24.76-0.86Q23.44-2.20 23.44-4.96L23.44-4.96L23.44-10.64Q23.44-12.28 22.94-13.16Q22.44-14.04 21.80-14.36Q21.16-14.68 21.16-14.56L21.16-14.56L26-14.56L26-5.56Q26-3.68 27.02-2.68Q28.04-1.68 29.44-1.68L29.44-1.68Q30.84-1.68 31.94-2.62Q33.04-3.56 33.04-5.08L33.04-5.08L33.04-10.92Q33.04-12.48 32.64-13.28Q32.24-14.08 31.72-14.36Q31.20-14.64 31.20-14.56L31.20-14.56L35.60-14.56L35.60-4.52Q35.60-2.84 36.14-2.22Q36.68-1.60 37.36-1.60L37.36-1.60L37.60-1.60L33.04 0.48L33.04-2.32Z M42-10.04Q42-11.72 41.46-12.34Q40.92-12.96 40.24-12.96L40.24-12.96L44.56-14.88L44.56-4Q44.56-2.24 44.92-1.36Q45.28-0.48 45.72-0.18Q46.16 0.12 46.16 0L46.16 0L40.40 0Q40.40 0.12 40.84-0.18Q41.28-0.48 41.64-1.36Q42-2.24 42-4L42-4L42-10.04ZM43.24-19.72Q42.36-19.72 41.86-20.30Q41.36-20.88 41.36-21.64L41.36-21.64Q41.36-22.40 41.86-22.98Q42.36-23.56 43.24-23.56L43.24-23.56Q44.12-23.56 44.62-22.98Q45.12-22.40 45.12-21.64L45.12-21.64Q45.12-20.88 44.62-20.30Q44.12-19.72 43.24-19.72L43.24-19.72Z M53.32-1.60L58.32-1.60Q59.88-1.60 60.46-2.44Q61.04-3.28 61.20-4.12L61.20-4.12L61.20 0L49.28 0L57.36-12.96L53.16-12.96Q51.40-12.96 50.72-12.06Q50.04-11.16 49.96-10.36L49.96-10.36L49.96-14.56L61.28-14.56L53.32-1.60Z M76.76 0.48Q75.48 0.44 74.60-0.20Q73.72-0.84 73.60-1.68L73.60-1.68Q72.88-0.64 71.70-0.08Q70.52 0.48 69.36 0.48L69.36 0.48Q67.52 0.48 66.28-0.58Q65.04-1.64 65.04-3.36L65.04-3.36Q65.04-7.80 73.36-7.80L73.36-7.80L73.36-8.24Q73.36-10.44 72.72-11.48L72.72-11.48Q71.84-12.96 69.84-12.96L69.84-12.96Q68.28-12.96 67.26-12.04Q66.24-11.12 66.24-9.64L66.24-9.64Q66-10.04 65.86-10.36Q65.72-10.68 65.72-11.24L65.72-11.24Q65.72-12.68 67.08-13.78Q68.44-14.88 70.64-14.88L70.64-14.88Q73.76-14.88 75.08-12.80L75.08-12.80Q75.52-12.16 75.72-11.20Q75.92-10.24 75.92-8.68L75.92-8.68L75.92-3.92Q75.92-2.68 76.62-2Q77.32-1.32 78.60-1.32L78.60-1.32L79.12-1.32L76.76 0.48ZM73.36-6.60Q70.16-6.60 69.04-5.80Q67.92-5 67.92-3.64L67.92-3.64Q67.92-2.52 68.52-1.88Q69.12-1.24 70.12-1.24L70.12-1.24Q70.88-1.24 71.56-1.60Q72.24-1.96 72.72-2.60L72.72-2.60Q73.36-3.44 73.36-4.88L73.36-4.88L73.36-6.60Z M110.68-2.24Q106.92 0 100.64 0L100.64 0L92.76 0Q92.76 0.12 93.24-0.22Q93.72-0.56 94.10-1.48Q94.48-2.40 94.48-4.16L94.48-4.16L94.48-23.84Q94.48-25.40 94.10-26.22Q93.72-27.04 93.24-27.32Q92.76-27.60 92.76-27.52L92.76-27.52L100.60-27.52Q106.72-27.52 110.28-25.52L110.28-25.52Q113.44-23.76 115.16-20.76Q116.88-17.76 116.88-14L116.88-14Q116.88-9.92 115.26-6.94Q113.64-3.96 110.68-2.24L110.68-2.24ZM109.12-23.72Q107.36-24.88 105.36-25.40Q103.36-25.92 100.60-25.92L100.60-25.92L97.36-25.92L97.36-1.60L100.60-1.60Q103.88-1.60 105.98-2.16Q108.08-2.72 109.60-3.88L109.60-3.88Q111.56-5.40 112.62-7.86Q113.68-10.32 113.68-13.60L113.68-13.60Q113.68-17.08 112.46-19.70Q111.24-22.32 109.12-23.72L109.12-23.72Z M131.92-2.32Q129.92 0.48 127 0.48L127 0.48Q124.96 0.48 123.64-0.86Q122.32-2.20 122.32-4.96L122.32-4.96L122.32-10.64Q122.32-12.28 121.82-13.16Q121.32-14.04 120.68-14.36Q120.04-14.68 120.04-14.56L120.04-14.56L124.88-14.56L124.88-5.56Q124.88-3.68 125.90-2.68Q126.92-1.68 128.32-1.68L128.32-1.68Q129.72-1.68 130.82-2.62Q131.92-3.56 131.92-5.08L131.92-5.08L131.92-10.92Q131.92-12.48 131.52-13.28Q131.12-14.08 130.60-14.36Q130.08-14.64 130.08-14.56L130.08-14.56L134.48-14.56L134.48-4.52Q134.48-2.84 135.02-2.22Q135.56-1.60 136.24-1.60L136.24-1.60L136.48-1.60L131.92 0.48L131.92-2.32Z M143.44-14.88L143.44-12.16Q144.44-13.40 145.68-14.14Q146.92-14.88 148.28-14.88L148.28-14.88Q149.76-14.88 150.90-14.18Q152.04-13.48 152.56-12.16L152.56-12.16Q153.64-13.52 155.02-14.20Q156.40-14.88 157.88-14.88L157.88-14.88Q160.04-14.88 161.34-13.50Q162.64-12.12 162.64-9.52L162.64-9.52L162.64-3.96Q162.64-1.76 163.20-0.92Q163.76-0.08 164.20 0L164.20 0L158.52 0Q159-0.08 159.54-0.92Q160.08-1.76 160.08-4L160.08-4L160.08-8.56Q160.08-9.92 159.72-10.72Q159.36-11.52 158.76-12.04L158.76-12.04Q157.84-12.80 156.56-12.80L156.56-12.80Q155.16-12.80 154.10-11.86Q153.04-10.92 153.04-9.24L153.04-9.24L153.04-4Q153.04-1.76 153.58-0.92Q154.12-0.08 154.60 0L154.60 0L148.92 0Q149.40-0.08 149.94-0.92Q150.48-1.76 150.48-4L150.48-4L150.48-8.56Q150.48-9.92 150.12-10.72Q149.76-11.52 149.16-12.04L149.16-12.04Q148.24-12.80 146.96-12.80L146.96-12.80Q145.52-12.80 144.48-11.86Q143.44-10.92 143.44-9.24L143.44-9.24L143.44-4Q143.44-1.72 144-0.90Q144.56-0.08 145.04 0L145.04 0L139.36 0Q139.84-0.08 140.36-0.92Q140.88-1.76 140.88-4L140.88-4L140.88-10.04Q140.88-11.72 140.34-12.34Q139.80-12.96 139.12-12.96L139.12-12.96L143.44-14.88Z M169.04-10.04Q169.04-11.72 168.50-12.34Q167.96-12.96 167.28-12.96L167.28-12.96L171.60-14.88L171.60-4Q171.60-2.24 171.96-1.36Q172.32-0.48 172.76-0.18Q173.20 0.12 173.20 0L173.20 0L167.44 0Q167.44 0.12 167.88-0.18Q168.32-0.48 168.68-1.36Q169.04-2.24 169.04-4L169.04-4L169.04-10.04ZM170.28-19.72Q169.40-19.72 168.90-20.30Q168.40-20.88 168.40-21.64L168.40-21.64Q168.40-22.40 168.90-22.98Q169.40-23.56 170.28-23.56L170.28-23.56Q171.16-23.56 171.66-22.98Q172.16-22.40 172.16-21.64L172.16-21.64Q172.16-20.88 171.66-20.30Q171.16-19.72 170.28-19.72L170.28-19.72Z M181.96 0.48Q180 0.48 179-0.86Q178-2.20 178-4.08L178-4.08L178-12.96L175.76-12.96L180.56-18.40L180.56-14.56L185.68-14.56L185.68-12.96L180.56-12.96L180.56-4.52Q180.56-3 181.36-2.22Q182.16-1.44 183.20-1.44L183.20-1.44Q184-1.44 184.76-1.92Q185.52-2.40 186-3.24L186-3.24Q185.40 0.48 181.96 0.48L181.96 0.48Z M192.72-11.24Q193.32-12.52 194.70-13.70Q196.08-14.88 197.48-14.88L197.48-14.88Q198.36-14.88 198.80-14.64L198.80-14.64L198.80-11.36Q197.92-12.44 196.32-12.44L196.32-12.44Q194.64-12.44 193.68-10.98Q192.72-9.52 192.72-7.24L192.72-7.24L192.72-4Q192.72-1.76 193.24-0.92Q193.76-0.08 194.24 0L194.24 0L188.60 0Q189.08-0.08 189.62-0.90Q190.16-1.72 190.16-4L190.16-4L190.16-10.04Q190.16-11.72 189.62-12.34Q189.08-12.96 188.40-12.96L188.40-12.96L192.72-14.88L192.72-11.24Z M202.96-10.04Q202.96-11.72 202.42-12.34Q201.88-12.96 201.20-12.96L201.20-12.96L205.52-14.88L205.52-4Q205.52-2.24 205.88-1.36Q206.24-0.48 206.68-0.18Q207.12 0.12 207.12 0L207.12 0L201.36 0Q201.36 0.12 201.80-0.18Q202.24-0.48 202.60-1.36Q202.96-2.24 202.96-4L202.96-4L202.96-10.04ZM204.20-19.72Q203.32-19.72 202.82-20.30Q202.32-20.88 202.32-21.64L202.32-21.64Q202.32-22.40 202.82-22.98Q203.32-23.56 204.20-23.56L204.20-23.56Q205.08-23.56 205.58-22.98Q206.08-22.40 206.08-21.64L206.08-21.64Q206.08-20.88 205.58-20.30Q205.08-19.72 204.20-19.72L204.20-19.72Z M221.52-2.32Q219.52 0.48 216.60 0.48L216.60 0.48Q214.56 0.48 213.24-0.86Q211.92-2.20 211.92-4.96L211.92-4.96L211.92-10.64Q211.92-12.28 211.42-13.16Q210.92-14.04 210.28-14.36Q209.64-14.68 209.64-14.56L209.64-14.56L214.48-14.56L214.48-5.56Q214.48-3.68 215.50-2.68Q216.52-1.68 217.92-1.68L217.92-1.68Q219.32-1.68 220.42-2.62Q221.52-3.56 221.52-5.08L221.52-5.08L221.52-10.92Q221.52-12.48 221.12-13.28Q220.72-14.08 220.20-14.36Q219.68-14.64 219.68-14.56L219.68-14.56L224.08-14.56L224.08-4.52Q224.08-2.84 224.62-2.22Q225.16-1.60 225.84-1.60L225.84-1.60L226.08-1.60L221.52 0.48L221.52-2.32Z M262.96-2.44Q261.44-1.20 259.00-0.36Q256.56 0.48 254.08 0.48L254.08 0.48Q250.36 0.48 247.16-1.24Q243.96-2.96 242.02-6.20Q240.08-9.44 240.08-13.80L240.08-13.80Q240.08-17.88 241.86-21.12Q243.64-24.36 246.94-26.18Q250.24-28 254.64-28L254.64-28Q259.32-28 262.96-25.96L262.96-25.96L262.96-21.52Q261.72-23.72 259.36-25.02Q257.00-26.32 254.32-26.32L254.32-26.32Q250.92-26.32 248.42-24.72Q245.92-23.12 244.60-20.34Q243.28-17.56 243.28-14.12L243.28-14.12Q243.28-10.24 244.78-7.36Q246.28-4.48 248.84-2.94Q251.40-1.40 254.56-1.40L254.56-1.40Q259.64-1.40 262.96-4.36L262.96-4.36L262.96-2.44Z M271.44-11.24Q272.04-12.52 273.42-13.70Q274.80-14.88 276.20-14.88L276.20-14.88Q277.08-14.88 277.52-14.64L277.52-14.64L277.52-11.36Q276.64-12.44 275.04-12.44L275.04-12.44Q273.36-12.44 272.40-10.98Q271.44-9.52 271.44-7.24L271.44-7.24L271.44-4Q271.44-1.76 271.96-0.92Q272.48-0.08 272.96 0L272.96 0L267.32 0Q267.80-0.08 268.34-0.90Q268.88-1.72 268.88-4L268.88-4L268.88-10.04Q268.88-11.72 268.34-12.34Q267.80-12.96 267.12-12.96L267.12-12.96L271.44-14.88L271.44-11.24Z M281.68-10.04Q281.68-11.72 281.14-12.34Q280.60-12.96 279.92-12.96L279.92-12.96L284.24-14.88L284.24-4Q284.24-2.24 284.60-1.36Q284.96-0.48 285.40-0.18Q285.84 0.12 285.84 0L285.84 0L280.08 0Q280.08 0.12 280.52-0.18Q280.96-0.48 281.32-1.36Q281.68-2.24 281.68-4L281.68-4L281.68-10.04ZM282.92-19.72Q282.04-19.72 281.54-20.30Q281.04-20.88 281.04-21.64L281.04-21.64Q281.04-22.40 281.54-22.98Q282.04-23.56 282.92-23.56L282.92-23.56Q283.80-23.56 284.30-22.98Q284.80-22.40 284.80-21.64L284.80-21.64Q284.80-20.88 284.30-20.30Q283.80-19.72 282.92-19.72L282.92-19.72Z M294.28 0.48Q293.08 0.48 291.80 0.08Q290.52-0.32 289.68-0.96L289.68-0.96L289.68-4.48Q290.44-2.60 291.74-1.78Q293.04-0.96 294.56-0.96L294.56-0.96Q295.80-0.96 296.58-1.64Q297.36-2.32 297.36-3.12L297.36-3.12Q297.36-4 296.56-4.60Q295.76-5.20 294.12-5.96L294.12-5.96Q292.00-6.96 290.84-7.92Q289.68-8.88 289.68-10.52L289.68-10.52Q289.68-12.32 291.04-13.60Q292.40-14.88 294.60-14.88L294.60-14.88Q296.12-14.88 297.24-14.52Q298.36-14.16 298.92-13.72L298.92-13.72L298.28-10.72Q297.80-12.08 296.68-12.76Q295.56-13.44 294.32-13.44L294.32-13.44Q293.24-13.44 292.54-12.80Q291.84-12.16 291.84-11.36L291.84-11.36Q291.84-10.28 292.70-9.64Q293.56-9 295.32-8.24L295.32-8.24Q297.40-7.36 298.50-6.46Q299.60-5.56 299.60-3.92L299.60-3.92Q299.60-2.76 298.96-1.76Q298.32-0.76 297.10-0.14Q295.88 0.48 294.28 0.48L294.28 0.48Z M308.36 0.48Q306.40 0.48 305.40-0.86Q304.40-2.20 304.40-4.08L304.40-4.08L304.40-12.96L302.16-12.96L306.96-18.40L306.96-14.56L312.08-14.56L312.08-12.96L306.96-12.96L306.96-4.52Q306.96-3 307.76-2.22Q308.56-1.44 309.60-1.44L309.60-1.44Q310.40-1.44 311.16-1.92Q311.92-2.40 312.40-3.24L312.40-3.24Q311.80 0.48 308.36 0.48L308.36 0.48Z M326.16-2.32Q324.16 0.48 321.24 0.48L321.24 0.48Q319.20 0.48 317.88-0.86Q316.56-2.20 316.56-4.96L316.56-4.96L316.56-10.64Q316.56-12.28 316.06-13.16Q315.56-14.04 314.92-14.36Q314.28-14.68 314.28-14.56L314.28-14.56L319.12-14.56L319.12-5.56Q319.12-3.68 320.14-2.68Q321.16-1.68 322.56-1.68L322.56-1.68Q323.96-1.68 325.06-2.62Q326.16-3.56 326.16-5.08L326.16-5.08L326.16-10.92Q326.16-12.48 325.76-13.28Q325.36-14.08 324.84-14.36Q324.32-14.64 324.32-14.56L324.32-14.56L328.72-14.56L328.72-4.52Q328.72-2.84 329.26-2.22Q329.80-1.60 330.48-1.60L330.48-1.60L330.72-1.60L326.16 0.48L326.16-2.32Z" />
      </g>
    </svg>
  </g>
  <g
     filter="url(#L5g6HXEkyY)"
     id="g9">
    <g
       opacity="0.41"
       transform="rotate(0 491.0256 155.8404)"
       id="g8">
      <svg
         width="99.9488"
         height="100"
         x="491.0256"
         y="155.8404"
         version="1.1"
         preserveAspectRatio="none"
         viewBox="5.0240092277526855 4.999873638153076 89.9540023803711 90.00012969970703"
         id="svg7">
        <g
           transform="matrix(1 0 0 1 0 0)"
           class="am92r7A-Vdcolors-0"
           id="g7">
          <path
             d="M57.717,28.779c-4.659-3.318-12.896-8.897-21.87-13.648l-4.48-10.092C38.515,4.122,50.956,19.538,57.717,28.779z   M80.605,22.229c0,0-3.438-1.47-6.74-1.47c-5.544,0-10.685,3.546-12.467,9.097l-1.177,3.665c0,0-32.373-24.724-50.682-24.727  c-1.628,0-3.142,0.195-4.515,0.62l50.529,50.529l-4.972,4.944c-4.002,3.775-7.079,8.526-8.81,13.882  c-2.711,8.39-2.872,15.945-2.869,16.231l13.89-13.89c0.357-6.009,2.805-11.456,6.633-15.621c0.635-0.687,9.946-9.679,9.946-9.679  c3.993-3.84,6.249-9.141,6.249-14.681v-7.986c0-3.549,2.246-6.71,5.597-7.878l13.761-4.795L80.605,22.229z"
             id="path6" />
        </g>
      </svg>
    </g>
  </g>
  <g
     opacity="0.9"
     transform="rotate(0 567.0256 155.8404)"
     id="g11">
    <svg
       width="99.9488"
       height="100"
       x="567.0256"
       y="155.8404"
       version="1.1"
       preserveAspectRatio="none"
       viewBox="5.0240092277526855 4.999873638153076 89.9540023803711 90.00012969970703"
       id="svg10">
      <g
         transform="matrix(-1 0 0 1 100.00202083587646 0)"
         class="aDGSFcrI09Gcolors-0"
         id="g10">
        <path
           d="M57.717,28.779c-4.659-3.318-12.896-8.897-21.87-13.648l-4.48-10.092C38.515,4.122,50.956,19.538,57.717,28.779z   M80.605,22.229c0,0-3.438-1.47-6.74-1.47c-5.544,0-10.685,3.546-12.467,9.097l-1.177,3.665c0,0-32.373-24.724-50.682-24.727  c-1.628,0-3.142,0.195-4.515,0.62l50.529,50.529l-4.972,4.944c-4.002,3.775-7.079,8.526-8.81,13.882  c-2.711,8.39-2.872,15.945-2.869,16.231l13.89-13.89c0.357-6.009,2.805-11.456,6.633-15.621c0.635-0.687,9.946-9.679,9.946-9.679  c3.993-3.84,6.249-9.141,6.249-14.681v-7.986c0-3.549,2.246-6.71,5.597-7.878l13.761-4.795L80.605,22.229z"
           id="path9" />
      </g>
    </svg>
  </g>
</svg>
